<svg width="340" height="50" viewBox="0 0 340 50" fill="none" xmlns="http://www.w3.org/2000/svg">
<path d="M138.6 19.7001H144.1V34.2001H148.4V19.7001H153.8V16.0001H138.6V19.7001Z" fill="#84A1BC"/>
<path d="M184.7 26.8001H192.4V23.1001H184.7V19.6001H193.1V16.0001H180.4V34.2001H193.3V30.5001H184.7V26.8001Z" fill="#84A1BC"/>
<path d="M230.1 26.5001H230L225.1 16.0001H220.1V34.2001H224.4V22.7001L225.6 25.7001L228.2 31.6001H231.9L234.5 25.7001L235.6 22.7001V34.2001H240V16.0001H235L230.1 26.5001Z" fill="#84A1BC"/>
<path d="M321.6 30.5001V26.8001H329.3V23.1001H321.6V19.6001H330V16.0001H317.3V34.2001H330.3V30.5001H321.6Z" fill="#84A1BC"/>
<path d="M204.3 16.0001L197.7 34.2001H202.3L206.7 21.3001H206.8L211.1 34.2001H215.7L209.1 16.0001H204.3Z" fill="#84A1BC"/>
<path d="M281.6 16.0001L275 34.2001H279.6L284 21.3001L288.4 34.2001H293L286.4 16.0001H281.6Z" fill="#84A1BC"/>
<path d="M124.9 19.7001C125 19.7001 132.9 19.7001 132.9 19.7001V16.0001H125.8C123.2 16.0001 121.9 17.1001 121.4 18.1001C121 18.9001 120.5 21.0001 121.8 22.3001C124.2 24.7001 130.2 30.5001 130.3 30.5001C130.2 30.5001 122.3 30.5001 122.3 30.5001V34.2001H129.4C132 34.2001 133.3 33.1001 133.8 32.1001C134.2 31.3001 134.8 29.4001 133.1 27.6001C130.7 25.2001 124.9 19.7001 124.9 19.7001Z" fill="#84A1BC"/>
<path d="M262.2 19.7001C262.3 19.7001 270.2 19.7001 270.2 19.7001V16.0001H263C260.4 16.0001 259.1 17.1001 258.6 18.1001C258.2 18.9001 257.7 21.0001 259 22.3001C261.4 24.7001 267.4 30.5001 267.5 30.5001C267.4 30.5001 259.5 30.5001 259.5 30.5001V34.2001H266.6C269.2 34.2001 270.5 33.1001 271 32.1001C271.4 31.3001 272 29.4001 270.3 27.6001C267.9 25.2001 262.2 19.7001 262.2 19.7001Z" fill="#84A1BC"/>
<path d="M173.5 26.2001C174.2 25.2001 174.5 24.0001 174.5 22.2001C174.5 20.1001 174.1 18.7001 173.1 17.6001C172 16.4001 170.4 15.9001 167.3 15.9001H159.6V34.2001H164H163.9V19.7001H166.8C168.2 19.7001 169.3 19.7001 169.8 20.0001C170.2 20.3001 170.3 21.0001 170.3 22.3001C170.3 23.6001 170.2 24.2001 169.8 24.5001C169.5 24.7001 166.8 24.8001 165.7 24.8001L170.6 34.3001H175.4L172 27.7001C172.6 27.3001 173.1 26.8001 173.5 26.2001Z" fill="#84A1BC"/>
<path d="M308 27C308 27.1 308 27.8 308 27.9C308 29 307.9 30 307.5 30.4C307.1 30.8 306.5 30.9 304.8 30.9C302.8 30.9 302.3 30.8 302 30.4C301.6 30 301.4 28.7 301.4 25.2C301.4 21.7 301.6 20.4 302 20C302.3 19.7 302.6 19.6 303.7 19.5H304.1C304.3 19.5 304.6 19.5 304.8 19.5C305.1 19.5 305.3 19.5 305.5 19.5H311.9L310 15.8C310 15.8 305.2 15.8 304.7 15.8C301.9 15.8 300 15.9 298.6 17.4C297.1 18.8 296.9 21.6 296.9 25.3C296.9 29 297 31.7 298.6 33.2C300.1 34.6 302 34.8 304.7 34.8C308 34.8 309.4 34.4 310.5 33.2C311.7 32 312.1 30.5 312.2 27.5C312.2 27.2 312.2 23.7 312.2 23.7H304.6V27H308Z" fill="#84A1BC"/>
<path d="M83.7 25.1L68.8 10.2C64.8 6.2 59.5 4 53.9 4C48.3 4 42.9 6.2 38.9 10.2L24 25.1L38.9 40C42.9 44 48.2 46.2 53.8 46.2C59.4 46.2 64.7 44 68.7 40L80.4 28.3L83.7 25.1ZM65.5 36.9C65.4 37 65.2 37.1 65.1 37.3C64.8 37.6 64.5 37.8 64.2 38.1C63.8 38.5 63.3 38.8 62.9 39.1C62 39.7 61 40.2 60 40.6C59 41 58 41.3 56.9 41.5C55.9 41.7 54.8 41.8 53.7 41.8C52.6 41.8 51.6 41.7 50.5 41.5C49.5 41.3 48.4 41 47.4 40.6C46.4 40.2 45.4 39.7 44.5 39.1C44 38.8 43.6 38.5 43.2 38.1C42.9 37.9 42.6 37.6 42.3 37.3C42.2 37.2 42 37.1 41.9 36.9L30.3 25.1L42 13.4C42.1 13.3 42.2 13.2 42.3 13.1C42.6 12.8 42.9 12.5 43.2 12.3C43.6 11.9 44.1 11.6 44.5 11.3C45.4 10.7 46.4 10.2 47.4 9.8C48.4 9.4 49.4 9.1 50.5 8.9C51.5 8.7 52.6 8.6 53.7 8.6C54.8 8.6 55.8 8.7 56.9 8.9C57.9 9.1 59 9.4 60 9.8C61 10.2 62 10.7 62.9 11.3C63.4 11.6 63.8 11.9 64.2 12.3C64.5 12.6 64.8 12.9 65.1 13.1C65.2 13.2 65.3 13.3 65.4 13.4L77.1 25.1L65.5 36.9Z" fill="#84A1BC"/>
<path d="M53.8 13.8C47.6 13.8 42.5 18.9 42.5 25.1C42.5 31.3 47.6 36.4 53.8 36.4C60 36.4 65.1 31.3 65.1 25.1C65.1 18.9 60 13.8 53.8 13.8ZM53.8 31.9C50.1 31.9 47 28.9 47 25.1C47 21.3 50 18.3 53.8 18.3C57.6 18.3 60.6 21.3 60.6 25.1C60.6 28.9 57.6 31.9 53.8 31.9Z" fill="#84A1BC"/>
<path d="M86.6 13.1H80.2L92.2 25.1L80.2 37.1H86.6L98.6 25.1L86.6 13.1Z" fill="#84A1BC"/>
<path d="M27.4 13.1H21L9 25.1L21.1 37.2H27.5L15.4 25.1L27.4 13.1Z" fill="#84A1BC"/>
</svg>
