<svg width="128" height="128" viewBox="0 0 128 128" fill="none" xmlns="http://www.w3.org/2000/svg">
<g clip-path="url(#clip0_821_913)">
<rect width="128" height="128" rx="64" fill="url(#paint0_linear_821_913)"/>
<path d="M76.032 64.256L37.888 26.112C27.648 15.872 14.08 10.24 -0.256011 10.24C-14.592 10.24 -28.416 15.872 -38.656 26.112L-76.8 64.256L-38.656 102.4C-28.416 112.64 -14.848 118.272 -0.512017 118.272C13.824 118.272 27.392 112.64 37.632 102.4L67.584 72.448L76.032 64.256ZM29.44 94.464C29.184 94.72 28.672 94.976 28.416 95.488C27.648 96.256 26.88 96.768 26.112 97.536C25.088 98.56 23.808 99.328 22.784 100.096C20.48 101.632 17.92 102.912 15.36 103.936C12.8 104.96 10.24 105.728 7.42399 106.24C4.86399 106.752 2.04799 107.008 -0.768013 107.008C-3.58401 107.008 -6.14401 106.752 -8.96001 106.24C-11.52 105.728 -14.336 104.96 -16.896 103.936C-19.456 102.912 -22.016 101.632 -24.32 100.096C-25.6 99.328 -26.624 98.56 -27.648 97.536C-28.416 97.024 -29.184 96.256 -29.952 95.488C-30.208 95.232 -30.72 94.976 -30.976 94.464L-60.672 64.256L-30.72 34.304C-30.464 34.048 -30.208 33.792 -29.952 33.536C-29.184 32.768 -28.416 32 -27.648 31.488C-26.624 30.464 -25.344 29.696 -24.32 28.928C-22.016 27.392 -19.456 26.112 -16.896 25.088C-14.336 24.064 -11.776 23.296 -8.96001 22.784C-6.40001 22.272 -3.58401 22.016 -0.768013 22.016C2.04799 22.016 4.60799 22.272 7.42399 22.784C9.98399 23.296 12.8 24.064 15.36 25.088C17.92 26.112 20.48 27.392 22.784 28.928C24.064 29.696 25.088 30.464 26.112 31.488C26.88 32.256 27.648 33.024 28.416 33.536C28.672 33.792 28.928 34.048 29.184 34.304L59.136 64.256L29.44 94.464Z" fill="white"/>
<path d="M-0.512017 35.328C-16.384 35.328 -29.44 48.384 -29.44 64.256C-29.44 80.128 -16.384 93.184 -0.512017 93.184C15.36 93.184 28.416 80.128 28.416 64.256C28.416 48.384 15.36 35.328 -0.512017 35.328ZM-0.512017 81.664C-9.98402 81.664 -17.92 73.984 -17.92 64.256C-17.92 54.528 -10.24 46.848 -0.512017 46.848C9.21598 46.848 16.896 54.528 16.896 64.256C16.896 73.984 9.21598 81.664 -0.512017 81.664Z" fill="white"/>
<path d="M83.456 33.536H67.072L97.792 64.256L67.072 94.976H83.456L114.176 64.256L83.456 33.536Z" fill="white"/>
<path d="M-68.096 33.536H-84.48L-115.2 64.256L-84.224 95.232H-67.84L-98.816 64.256L-68.096 33.536Z" fill="white"/>
</g>
<defs>
<linearGradient id="paint0_linear_821_913" x1="0" y1="0" x2="128" y2="128" gradientUnits="userSpaceOnUse">
<stop stop-color="#7F54B3"/>
<stop offset="0.989583" stop-color="#3D176B"/>
</linearGradient>
<clipPath id="clip0_821_913">
<rect width="128" height="128" rx="64" fill="white"/>
</clipPath>
</defs>
</svg>
